<svg width="135.000000" height="38.000000" viewBox="0 0 135 38" fill="none" xmlns="http://www.w3.org/2000/svg" xmlns:xlink="http://www.w3.org/1999/xlink">
	<desc>
			Created with Pixso.
	</desc>
	<defs/>
	<path d="M50.5439 33.9342L50.5439 26.0942L50.608 26.0942C51.1627 26.9049 51.8719 27.5182 52.736 27.9342Q52.9631 28.0436 53.1976 28.1337L53.1976 28.1338Q54.3011 28.5582 55.568 28.5582C56.7841 28.5582 57.8453 28.3235 58.752 27.8542Q59.608 27.411 60.2866 26.7777L60.2866 26.7777Q60.686 26.4049 61.024 25.9662C61.632 25.1769 62.0853 24.2701 62.384 23.2462Q62.3925 23.2172 62.4008 23.1882Q62.832 21.6788 62.832 20.0461Q62.832 18.2861 62.384 16.6702C62.0853 15.5929 61.6267 14.6488 61.0081 13.8381Q60.7296 13.4734 60.408 13.1517Q59.6576 12.4014 58.672 11.8862Q57.264 11.1501 55.312 11.1501Q53.9242 11.1501 52.7454 11.6465L52.7452 11.6466Q52.6194 11.6996 52.496 11.7582Q52.2788 11.8613 52.0746 11.9857Q51.0748 12.5942 50.384 13.7102L50.3199 13.7102L50.3199 11.5981L46 11.5981L46 33.9342L50.5439 33.9342ZM52.496 24.7181C53.0081 25.0168 53.6267 25.1661 54.3521 25.1661C55.0986 25.1661 55.7227 25.0168 56.224 24.7181C56.7253 24.4196 57.1306 24.0302 57.4399 23.5502C57.7494 23.0702 57.968 22.5101 58.0959 21.8702C58.224 21.2302 58.288 20.5795 58.288 19.9182Q58.288 19.2072 58.1812 18.5126Q58.1389 18.2382 58.08 17.9662C57.9413 17.3262 57.712 16.7555 57.392 16.2542C57.072 15.7528 56.6614 15.3475 56.16 15.0382C55.6587 14.7289 55.0453 14.5742 54.3199 14.5742Q53.2 14.5742 52.448 15.0382C51.9467 15.3475 51.5414 15.7476 51.2321 16.2382Q50.7679 16.9742 50.576 17.9342C50.448 18.5742 50.384 19.2355 50.384 19.9182Q50.384 20.6292 50.4908 21.3237Q50.5331 21.5983 50.592 21.8702C50.7307 22.5101 50.9547 23.0702 51.264 23.5502C51.5734 24.0302 51.984 24.4196 52.496 24.7181ZM70.2339 28.5582Q70.9712 28.5582 71.6937 28.455Q72.4764 28.3431 73.2418 28.1102C74.2231 27.8115 75.0765 27.2888 75.8019 26.5422C75.8232 26.8196 75.8605 27.0916 75.9138 27.3582C75.9672 27.6249 76.0365 27.8862 76.1218 28.1422L80.7299 28.1422C80.5165 27.8009 80.3672 27.2888 80.2819 26.6062C80.1965 25.9236 80.1538 25.2089 80.1538 24.4622L80.1538 15.8542C80.1538 14.8516 79.9298 14.0461 79.4818 13.4382Q79.2485 13.1216 78.9689 12.8531Q78.4432 12.3484 77.7539 12.0142C77.0498 11.6729 76.2712 11.4435 75.4178 11.3262Q74.1378 11.1501 72.8899 11.1501Q72.4818 11.1501 72.0752 11.1741Q71.1106 11.2308 70.1538 11.4222C69.2472 11.6035 68.4312 11.9075 67.7058 12.3342C66.9805 12.7609 66.3832 13.3262 65.9138 14.0302C65.4445 14.7341 65.1779 15.6195 65.1139 16.6862L69.6578 16.6862C69.7432 15.7902 70.0419 15.1501 70.5538 14.7662Q71.3219 14.1902 72.6659 14.1902Q73.2738 14.1902 73.8019 14.2701Q74.3298 14.3502 74.7299 14.5902C74.9965 14.7502 75.2098 14.9742 75.3699 15.2622C75.5298 15.5502 75.6099 15.9396 75.6099 16.4302C75.6113 16.4614 75.6119 16.4923 75.6119 16.5226C75.6119 16.9467 75.4727 17.2732 75.1938 17.5022C74.8951 17.7476 74.4899 17.9342 73.9779 18.0621C73.4658 18.1902 72.8792 18.2861 72.2179 18.3502C71.5565 18.4142 70.8845 18.4995 70.2019 18.6062C69.5192 18.7129 68.8418 18.8568 68.1698 19.0382Q67.1619 19.3102 66.3778 19.8542C65.8552 20.2168 65.4285 20.7021 65.0979 21.3102Q64.6018 22.2222 64.6018 23.6301C64.6018 24.4835 64.7458 25.2195 65.0338 25.8381C65.3219 26.4569 65.7218 26.9689 66.2339 27.3741C66.7458 27.7795 67.3431 28.0782 68.0259 28.2701C68.7085 28.4622 69.4445 28.5582 70.2339 28.5582ZM70.8739 25.4542C71.2152 25.5182 71.5671 25.5502 71.9298 25.5502Q73.2738 25.5502 74.0099 25.1022C74.5005 24.8035 74.8632 24.4462 75.0979 24.0302C75.3325 23.6141 75.4766 23.1929 75.5298 22.7662Q75.6099 22.1262 75.6099 21.7422L75.6099 20.0461C75.4178 20.2168 75.1779 20.3502 74.8899 20.4462C74.6018 20.5422 74.2925 20.6222 73.9618 20.6862C73.6312 20.7502 73.2845 20.8035 72.9219 20.8462C72.5592 20.8889 72.1965 20.9421 71.8339 21.0062C71.4926 21.0702 71.1565 21.1555 70.8258 21.2622C70.4951 21.3689 70.2072 21.5128 69.9618 21.6942C69.7166 21.8755 69.5192 22.1049 69.3699 22.3822C69.2205 22.6595 69.1459 23.0115 69.1459 23.4382Q69.1459 24.0461 69.3699 24.4622C69.5192 24.7395 69.7218 24.9581 69.9779 25.1182C70.2339 25.2782 70.5325 25.3901 70.8739 25.4542ZM85.8917 33.9342C87.449 33.9342 88.665 33.6462 89.5397 33.0702C90.4143 32.4941 91.097 31.5342 91.5876 30.1902L98.4996 11.5981L93.7957 11.5981L90.1797 22.9261L90.1157 22.9261L86.3717 11.5981L81.5397 11.5981L87.3317 27.1182C87.4597 27.4382 87.5237 27.7795 87.5237 28.1422C87.5237 28.6328 87.3796 29.0808 87.0917 29.4862C86.8037 29.8915 86.3611 30.1262 85.7637 30.1902C85.3157 30.2115 84.8677 30.2008 84.4197 30.1582C83.9717 30.1155 83.5343 30.0729 83.1077 30.0302L83.1077 33.7742C83.577 33.8169 84.041 33.8542 84.4996 33.8862C84.9584 33.9182 85.4224 33.9342 85.8917 33.9342ZM104.59 28.5262C105.379 28.5262 106.104 28.4302 106.766 28.2382C107.427 28.0461 108.019 27.7795 108.542 27.4382C109.064 27.0968 109.507 26.7075 109.87 26.2701C110.232 25.8329 110.51 25.3689 110.702 24.8782L110.766 24.8782L110.766 25.7422C110.766 26.0835 110.792 26.3982 110.846 26.6862C110.899 26.9742 111 27.2249 111.15 27.4382Q111.374 27.7582 111.806 27.9502C112.094 28.0782 112.483 28.1422 112.974 28.1422C113.315 28.1422 113.646 28.0995 113.966 28.0142L113.966 26.9902Q113.39 27.0862 113.07 27.0862Q112.654 27.0862 112.43 26.9102Q112.36 26.8557 112.303 26.7904Q112.176 26.645 112.109 26.4462C112.046 26.2542 112.008 26.0409 111.998 25.8062C111.987 25.5715 111.982 25.3369 111.982 25.1022L111.982 15.5342C111.982 14.2755 111.528 13.2568 110.622 12.4781Q109.261 11.3102 106.286 11.3102Q103.31 11.3102 101.693 12.6702C100.616 13.5769 100.035 14.9369 99.9496 16.7502L101.166 16.7502C101.251 15.2782 101.747 14.1796 102.654 13.4542Q102.675 13.4368 102.697 13.4197Q104.049 12.3662 106.222 12.3662C107.054 12.3662 107.758 12.4515 108.333 12.6222C108.91 12.7928 109.379 13.0275 109.742 13.3262C110.104 13.6249 110.371 13.9662 110.542 14.3502Q110.577 14.4291 110.607 14.5099Q110.797 15.0183 110.797 15.5981C110.797 16.1742 110.766 16.6542 110.702 17.0382C110.638 17.4222 110.478 17.7368 110.222 17.9822C109.966 18.2275 109.587 18.4196 109.086 18.5582C108.584 18.6969 107.896 18.7982 107.021 18.8622L105.134 19.0222Q104.141 19.1182 103.07 19.3422C102.355 19.4916 101.704 19.7422 101.118 20.0942C100.531 20.4462 100.046 20.9261 99.6615 21.5342C99.2776 22.1422 99.0856 22.9261 99.0856 23.8862C99.0856 25.4648 99.5656 26.6328 100.526 27.3901C101.486 28.1475 102.84 28.5262 104.59 28.5262ZM101.453 26.5902C102.222 27.1769 103.278 27.4702 104.622 27.4702Q106.702 27.4702 107.917 26.7181C108.728 26.2168 109.347 25.6409 109.774 24.9902C110.2 24.3395 110.472 23.7102 110.59 23.1022C110.707 22.4941 110.766 22.0835 110.766 21.8702L110.766 18.7982C110.467 19.1609 110.014 19.4062 109.406 19.5342C108.797 19.6622 108.12 19.7582 107.374 19.8221L105.326 20.0142C104.728 20.0782 104.131 20.1688 103.534 20.2861Q102.638 20.4622 101.917 20.8782C101.438 21.1555 101.048 21.5342 100.75 22.0142C100.451 22.4941 100.302 23.1182 100.302 23.8862C100.302 25.1022 100.686 26.0035 101.453 26.5902ZM117.111 34.0302L117.111 24.7181L117.175 24.7181C117.666 26.0621 118.445 27.0328 119.511 27.6301C120.578 28.2275 121.794 28.5262 123.159 28.5262C124.418 28.5262 125.511 28.3129 126.439 27.8862C127.367 27.4595 128.135 26.8676 128.743 26.1102C129.351 25.3529 129.805 24.4515 130.103 23.4062C130.402 22.3608 130.551 21.2089 130.551 19.9502C130.551 18.7982 130.402 17.6995 130.103 16.6542C129.805 15.6089 129.351 14.6915 128.743 13.9022C128.135 13.1129 127.367 12.4835 126.439 12.0142C125.511 11.5448 124.418 11.3102 123.159 11.3102C122.263 11.3102 121.469 11.4489 120.775 11.7262C120.082 12.0035 119.49 12.3502 118.999 12.7662Q118.263 13.3901 117.815 14.1262Q117.367 14.8622 117.175 15.4702L117.111 15.4702L117.111 11.6942L115.895 11.6942L115.895 34.0302L117.111 34.0302ZM120.263 26.8462Q121.431 27.4702 123.159 27.4702C124.226 27.4702 125.149 27.2676 125.927 26.8622C126.706 26.4569 127.346 25.9128 127.847 25.2302C128.349 24.5475 128.722 23.7528 128.967 22.8462C129.213 21.9396 129.335 20.9742 129.335 19.9502C129.335 19.0115 129.218 18.0889 128.983 17.1821C128.749 16.2755 128.386 15.4648 127.895 14.7502C127.405 14.0355 126.77 13.4595 125.991 13.0222Q124.823 12.3662 123.159 12.3662C122.071 12.3662 121.143 12.5795 120.375 13.0062C119.607 13.4329 118.983 13.9982 118.503 14.7021C118.023 15.4062 117.677 16.2115 117.463 17.1182Q117.143 18.4781 117.143 19.9502Q117.143 21.4222 117.431 22.7822Q117.719 24.1422 118.407 25.1821Q118.582 25.4462 118.787 25.6832Q119.392 26.3805 120.263 26.8462ZM134.657 8.59021L134.657 5.29419L133.441 5.29419L133.441 8.59021L134.657 8.59021ZM134.657 28.1422L134.657 11.6942L133.441 11.6942L133.441 28.1422L134.657 28.1422Z" clip-rule="evenodd" fill="#36536B" fill-opacity="1.000000" fill-rule="evenodd"/>
	<circle r="3.000000" transform="matrix(0.707107 0.707107 -0.707107 0.707107 19.1421 5)" fill="#36536B" fill-opacity="1.000000"/>
	<circle r="3.000000" transform="matrix(0.707107 0.707107 -0.707107 0.707107 19.1421 5)" stroke="#979797" stroke-opacity="0" stroke-width="0.000000"/>
	<circle r="3.000000" transform="matrix(0.707107 0.707107 -0.707107 0.707107 26.2131 12.071)" fill="#36536B" fill-opacity="1.000000"/>
	<circle r="3.000000" transform="matrix(0.707107 0.707107 -0.707107 0.707107 26.2131 12.071)" stroke="#979797" stroke-opacity="0" stroke-width="0.000000"/>
	<circle r="3.000000" transform="matrix(0.707107 0.707107 -0.707107 0.707107 33.2843 19.1422)" fill="#36536B" fill-opacity="1.000000"/>
	<circle r="3.000000" transform="matrix(0.707107 0.707107 -0.707107 0.707107 33.2843 19.1422)" stroke="#979797" stroke-opacity="0" stroke-width="0.000000"/>
	<circle r="3.000000" transform="matrix(0.707107 0.707107 -0.707107 0.707107 12.071 12.071)" fill="#36536B" fill-opacity="1.000000"/>
	<circle r="3.000000" transform="matrix(0.707107 0.707107 -0.707107 0.707107 12.071 12.071)" stroke="#979797" stroke-opacity="0" stroke-width="0.000000"/>
	<g opacity="0.500000" style="mix-blend-mode:normal">
		<circle r="3.000000" transform="matrix(0.707107 0.707107 -0.707107 0.707107 19.1421 19.1422)" fill="#36536B" fill-opacity="1.000000"/>
		<circle r="3.000000" transform="matrix(0.707107 0.707107 -0.707107 0.707107 19.1421 19.1422)" stroke="#979797" stroke-opacity="0" stroke-width="0.000000"/>
	</g>
	<g opacity="0.500000" style="mix-blend-mode:normal">
		<circle r="3.000000" transform="matrix(0.707107 0.707107 -0.707107 0.707107 26.2131 26.2133)" fill="#36536B" fill-opacity="1.000000"/>
		<circle r="3.000000" transform="matrix(0.707107 0.707107 -0.707107 0.707107 26.2131 26.2133)" stroke="#979797" stroke-opacity="0" stroke-width="0.000000"/>
	</g>
	<circle r="3.000000" transform="matrix(0.707107 0.707107 -0.707107 0.707107 5 19.1422)" fill="#36536B" fill-opacity="1.000000"/>
	<circle r="3.000000" transform="matrix(0.707107 0.707107 -0.707107 0.707107 5 19.1422)" stroke="#979797" stroke-opacity="0" stroke-width="0.000000"/>
	<g opacity="0.500000" style="mix-blend-mode:normal">
		<circle r="3.000000" transform="matrix(0.707107 0.707107 -0.707107 0.707107 12.071 26.2133)" fill="#36536B" fill-opacity="1.000000"/>
		<circle r="3.000000" transform="matrix(0.707107 0.707107 -0.707107 0.707107 12.071 26.2133)" stroke="#979797" stroke-opacity="0" stroke-width="0.000000"/>
	</g>
	<g opacity="0.250000" style="mix-blend-mode:normal">
		<circle r="3.000000" transform="matrix(0.707107 0.707107 -0.707107 0.707107 19.1421 33.2843)" fill="#36536B" fill-opacity="1.000000"/>
		<circle r="3.000000" transform="matrix(0.707107 0.707107 -0.707107 0.707107 19.1421 33.2843)" stroke="#979797" stroke-opacity="0" stroke-width="0.000000"/>
	</g>
</svg>
